# xmcd
#
# Track frame offsets:
# 299
# 14921
# 31123
# 52249
# 66013
# 84578
# 97617
# 123616
# 141565
# 163297
#
# Disc length: 2401 seconds
#
# Revision: 0
# Processed by: cddbd v1.5.2PL0 Copyright (c) Steve Scherf et al.
# Submitted via: Axialis_AX_CDPlayer 2.6
#
DISCID=8f095e0a
DTITLE=Steve Young - Songlines Revisited Volume One
DYEAR=2005
DGENRE=Country
TTITLE0=The White Trash Song
TTITLE1=Long Way To Hollywood
TTITLE2=Montgomery In The Rain
TTITLE3=Ragtime Blue Guitar
TTITLE4=Rocksalt and Nails
TTITLE5=Gonna Find Me A Bluebird
TTITLE6=Alabama Highway
TTITLE7=Lonesome, On'ry and Mean
TTITLE8=Seven Bridges Road
TTITLE9=My Oklahoma
EXTD=
EXTT0=
EXTT1=
EXTT2=
EXTT3=
EXTT4=
EXTT5=
EXTT6=
EXTT7=
EXTT8=
EXTT9=
PLAYORDER=
